<svg xmlns="http://www.w3.org/2000/svg" width="135.37" height="25" viewBox="0 0 135.37 25">
  <g id="Shapes">
    <rect width="135.37" height="25" rx="3" fill="#0065b3"/>
    <g>
      <polygon points="9.83 20.59 26.81 20.59 17.67 4.75 14.89 12.4 20.23 18.76 9.83 20.59" fill="#f2f2f3"/>
      <polygon points="16.94 3.54 10.41 9.03 4.81 18.72 9.86 18.72 9.86 18.73 16.94 3.54" fill="#f2f2f3"/>
    </g>
  </g>
  <g id="Text">
    <g>
      <path d="M40.17,16.45H38.11V12.74H34.34v3.71H32.29V7.34h2.05V11h3.77V7.34h2.06Z" fill="#f2f2f3"/>
      <path d="M45.11,16.6a3.48,3.48,0,0,1-2.56-.91,3.29,3.29,0,0,1-.93-2.47,3.27,3.27,0,0,1,1-2.52,3.62,3.62,0,0,1,2.61-.91,3.45,3.45,0,0,1,2.54.91,3.24,3.24,0,0,1,.92,2.41,3.42,3.42,0,0,1-.95,2.55A3.53,3.53,0,0,1,45.11,16.6Zm0-5.28a1.37,1.37,0,0,0-1.11.49,2.19,2.19,0,0,0-.39,1.39c0,1.24.5,1.87,1.51,1.87s1.44-.64,1.44-1.93S46.13,11.32,45.16,11.32Z" fill="#f2f2f3"/>
      <path d="M59.22,10l-1.87,6.5H55.24l-1-3.81a3.62,3.62,0,0,1-.11-.83h0a4.44,4.44,0,0,1-.13.8l-1,3.84H50.9L49.07,10h2l.9,4.24a5.62,5.62,0,0,1,.09.72h0a4.3,4.3,0,0,1,.11-.75L53.37,10h1.91l1,4.24c0,.1.05.35.09.73h0a6.09,6.09,0,0,1,.1-.73L57.37,10Z" fill="#f2f2f3"/>
      <path d="M63.42,13.68H60V12.27h3.47Z" fill="#f2f2f3"/>
      <path d="M68.67,16.37a3,3,0,0,1-1.34.23c-1.42,0-2.12-.73-2.12-2.2v-3H64.15V10h1.06V8.54l2-.57v2h1.46v1.47H67.21v2.63c0,.68.26,1,.8,1a1.33,1.33,0,0,0,.66-.19Z" fill="#f2f2f3"/>
      <path d="M72.88,16.6a3.48,3.48,0,0,1-2.56-.91,3.29,3.29,0,0,1-.93-2.47,3.27,3.27,0,0,1,1-2.52A3.62,3.62,0,0,1,73,9.79a3.47,3.47,0,0,1,2.54.91,3.24,3.24,0,0,1,.92,2.41,3.42,3.42,0,0,1-1,2.55A3.53,3.53,0,0,1,72.88,16.6Zm.05-5.28a1.37,1.37,0,0,0-1.11.49,2.19,2.19,0,0,0-.39,1.39c0,1.24.5,1.87,1.51,1.87s1.44-.64,1.44-1.93S73.9,11.32,72.93,11.32Z" fill="#f2f2f3"/>
      <path d="M87.69,15.7a3.66,3.66,0,0,1-1,2.8,4.22,4.22,0,0,1-3,1,4.8,4.8,0,0,1-2.08-.38V17.44a4.1,4.1,0,0,0,2,.58,2.17,2.17,0,0,0,1.57-.54A1.91,1.91,0,0,0,85.68,16v-.52h0a2.22,2.22,0,0,1-2,1.09,2.42,2.42,0,0,1-2-.87,3.55,3.55,0,0,1-.73-2.35,4,4,0,0,1,.81-2.62,2.64,2.64,0,0,1,2.14-1,2,2,0,0,1,1.77.91h0V10h2Zm-2-2.38v-.51a1.6,1.6,0,0,0-.37-1.05,1.18,1.18,0,0,0-1-.44,1.26,1.26,0,0,0-1,.52A2.5,2.5,0,0,0,83,13.31a2,2,0,0,0,.37,1.28,1.17,1.17,0,0,0,1,.48,1.21,1.21,0,0,0,1-.48A2,2,0,0,0,85.71,13.32Z" fill="#f2f2f3"/>
      <path d="M95.54,16.45h-2v-1h0a2.27,2.27,0,0,1-2,1.15c-1.51,0-2.26-.91-2.26-2.73V10h2v3.74c0,.92.36,1.38,1.09,1.38a1.07,1.07,0,0,0,.86-.38,1.5,1.5,0,0,0,.33-1V10h2Z" fill="#f2f2f3"/>
      <path d="M98.2,8.92a1.16,1.16,0,0,1-.83-.3,1,1,0,0,1-.32-.74.93.93,0,0,1,.32-.74,1.2,1.2,0,0,1,.83-.29,1.24,1.24,0,0,1,.84.29,1,1,0,0,1,0,1.48A1.2,1.2,0,0,1,98.2,8.92Zm1,7.53h-2V10h2Z" fill="#f2f2f3"/>
      <path d="M107.23,16.45h-2v-.9h0a2.26,2.26,0,0,1-2,1.05,2.45,2.45,0,0,1-2-.86,3.57,3.57,0,0,1-.74-2.4,3.86,3.86,0,0,1,.82-2.58,2.67,2.67,0,0,1,2.15-1,1.83,1.83,0,0,1,1.75.9h0V6.82h2Zm-2-3.17V12.8a1.52,1.52,0,0,0-.37-1.06,1.2,1.2,0,0,0-1-.42,1.22,1.22,0,0,0-1,.53,2.4,2.4,0,0,0-.37,1.43,2.08,2.08,0,0,0,.36,1.32,1.21,1.21,0,0,0,1,.47,1.24,1.24,0,0,0,1-.49A2.09,2.09,0,0,0,105.26,13.28Z" fill="#f2f2f3"/>
      <path d="M114.76,13.77h-4.24c.06.94.66,1.41,1.78,1.41a3.52,3.52,0,0,0,1.89-.51v1.45a5,5,0,0,1-2.35.48,3.29,3.29,0,0,1-2.44-.87,3.28,3.28,0,0,1-.87-2.43,3.48,3.48,0,0,1,.94-2.57,3.12,3.12,0,0,1,2.31-.94,2.85,2.85,0,0,1,2.2.84,3.24,3.24,0,0,1,.78,2.29Zm-1.86-1.23c0-.94-.38-1.4-1.13-1.4a1.09,1.09,0,0,0-.84.4,1.86,1.86,0,0,0-.43,1Z" fill="#f2f2f3"/>
    </g>
  </g>
</svg>
