<svg xmlns="http://www.w3.org/2000/svg" width="135.37" height="25" viewBox="0 0 135.37 25">
  <g id="Shapes">
    <rect width="135.37" height="25" rx="3" fill="#0065b3"/>
    <g>
      <polygon points="9.83 20.59 26.81 20.59 17.67 4.75 14.89 12.4 20.23 18.76 9.83 20.59" fill="#f2f2f3"/>
      <polygon points="16.94 3.54 10.41 9.03 4.81 18.72 9.86 18.72 9.86 18.73 16.94 3.54" fill="#f2f2f3"/>
    </g>
  </g>
  <g id="Text">
    <g>
      <path d="M36.14,16.6A4.26,4.26,0,0,1,33,15.33,4.59,4.59,0,0,1,31.72,12,4.94,4.94,0,0,1,33,8.52a4.32,4.32,0,0,1,3.32-1.33,4.09,4.09,0,0,1,3.14,1.28,4.63,4.63,0,0,1,1.21,3.36,4.83,4.83,0,0,1-1.25,3.46l-.08.09-.08.07,2.3,2.22H38.66l-1.21-1.22A5.3,5.3,0,0,1,36.14,16.6ZM36.23,9a2.06,2.06,0,0,0-1.71.82,3.33,3.33,0,0,0-.64,2.14,3.29,3.29,0,0,0,.64,2.14,2.2,2.2,0,0,0,3.34,0,3.26,3.26,0,0,0,.62-2.13,3.59,3.59,0,0,0-.6-2.2A2,2,0,0,0,36.23,9Z" fill="#f2f2f3"/>
      <path d="M48.21,16.45h-2v-1h0a2.27,2.27,0,0,1-2,1.15c-1.51,0-2.26-.91-2.26-2.73V10h2v3.74c0,.92.36,1.38,1.09,1.38a1.07,1.07,0,0,0,.86-.38,1.5,1.5,0,0,0,.33-1V10h2Z" fill="#f2f2f3"/>
      <path d="M50.87,8.92a1.16,1.16,0,0,1-.83-.3,1,1,0,0,1-.32-.74A.93.93,0,0,1,50,7.14a1.2,1.2,0,0,1,.83-.29,1.24,1.24,0,0,1,.84.29,1,1,0,0,1,0,1.48A1.2,1.2,0,0,1,50.87,8.92Zm1,7.53h-2V10h2Z" fill="#f2f2f3"/>
      <path d="M58.44,16.21a4,4,0,0,1-2,.39,3.35,3.35,0,0,1-2.43-.9,3.14,3.14,0,0,1-.92-2.35,3.47,3.47,0,0,1,1-2.61,3.66,3.66,0,0,1,2.66-1,3.45,3.45,0,0,1,1.66.3v1.7a2.31,2.31,0,0,0-1.4-.47,1.83,1.83,0,0,0-1.37.51,1.86,1.86,0,0,0-.51,1.39,1.83,1.83,0,0,0,.49,1.36,1.79,1.79,0,0,0,1.32.49,2.69,2.69,0,0,0,1.47-.47Z" fill="#f2f2f3"/>
      <path d="M66.36,16.45H64l-2.08-3.23h0v3.23h-2V6.82h2V13h0l1.94-3H66.2L63.87,13Z" fill="#f2f2f3"/>
      <path d="M67,16.27V14.65a4,4,0,0,0,1,.44,3.21,3.21,0,0,0,.93.15,2,2,0,0,0,.85-.15.46.46,0,0,0,.3-.44.4.4,0,0,0-.14-.32,1.23,1.23,0,0,0-.36-.22,4.24,4.24,0,0,0-.47-.17l-.51-.17a6.2,6.2,0,0,1-.68-.32,1.92,1.92,0,0,1-.49-.39,1.49,1.49,0,0,1-.31-.51,2.09,2.09,0,0,1-.1-.69,1.75,1.75,0,0,1,.24-.94,1.87,1.87,0,0,1,.63-.65,3,3,0,0,1,.91-.37,5.22,5.22,0,0,1,1.06-.11,6.62,6.62,0,0,1,.88.06,6.45,6.45,0,0,1,.87.2V11.6a3.23,3.23,0,0,0-.81-.34,3.69,3.69,0,0,0-.86-.11,1.5,1.5,0,0,0-.37,0,1,1,0,0,0-.31.1.55.55,0,0,0-.2.17.35.35,0,0,0-.08.24.44.44,0,0,0,.11.3,1,1,0,0,0,.3.22,3.17,3.17,0,0,0,.41.17,4,4,0,0,1,.45.15,5.38,5.38,0,0,1,.72.3,2.32,2.32,0,0,1,.56.39,1.45,1.45,0,0,1,.35.52,1.7,1.7,0,0,1,.13.71,2,2,0,0,1-.25,1,2,2,0,0,1-.67.66,3.16,3.16,0,0,1-1,.38A5.93,5.93,0,0,1,69,16.6,5.79,5.79,0,0,1,67,16.27Z" fill="#f2f2f3"/>
      <path d="M77,16.37a3,3,0,0,1-1.34.23c-1.42,0-2.12-.73-2.12-2.2v-3H72.5V10h1.06V8.54l2-.57v2H77v1.47H75.56v2.63c0,.68.27,1,.8,1a1.33,1.33,0,0,0,.66-.19Z" fill="#f2f2f3"/>
      <path d="M83.69,16.45h-1.9v-.94h0a2.1,2.1,0,0,1-1.93,1.09,2,2,0,0,1-1.49-.53,1.94,1.94,0,0,1-.54-1.43c0-1.27.74-2,2.24-2.19l1.76-.23c0-.71-.38-1.07-1.15-1.07a3.94,3.94,0,0,0-2.21.69V10.33A5.2,5.2,0,0,1,79.58,10a6.07,6.07,0,0,1,1.33-.16,2.45,2.45,0,0,1,2.78,2.77ZM81.8,13.8v-.43l-1.18.15c-.65.08-1,.38-1,.88a.71.71,0,0,0,.24.56.9.9,0,0,0,.65.22,1.2,1.2,0,0,0,.92-.39A1.44,1.44,0,0,0,81.8,13.8Z" fill="#f2f2f3"/>
      <path d="M89.51,11.75a1.78,1.78,0,0,0-.85-.19,1.23,1.23,0,0,0-1,.48,2.05,2.05,0,0,0-.37,1.3v3.11h-2V10h2v1.2h0A1.74,1.74,0,0,1,89,9.83a1.34,1.34,0,0,1,.5.08Z" fill="#f2f2f3"/>
      <path d="M94.65,16.37a3,3,0,0,1-1.34.23c-1.42,0-2.12-.73-2.12-2.2v-3H90.13V10h1.06V8.54l2-.57v2h1.46v1.47H93.19v2.63c0,.68.26,1,.8,1a1.33,1.33,0,0,0,.66-.19Z" fill="#f2f2f3"/>
    </g>
  </g>
</svg>
