<svg xmlns="http://www.w3.org/2000/svg" width="135.37" height="25" viewBox="0 0 135.37 25">
  <g id="Shapes">
    <rect width="135.37" height="25" rx="3" fill="#0065b3"/>
    <g>
      <polygon points="9.83 20.59 26.81 20.59 17.67 4.75 14.89 12.4 20.23 18.76 9.83 20.59" fill="#f2f2f3"/>
      <polygon points="16.94 3.54 10.41 9.03 4.81 18.72 9.86 18.72 9.86 18.73 16.94 3.54" fill="#f2f2f3"/>
    </g>
  </g>
  <g id="Text">
    <g>
      <path d="M38.69,9h-2.6v7.44H34V9H31.45V7.34h7.24Z" fill="#f2f2f3"/>
      <path d="M45,16.45H43v-1h0a2.26,2.26,0,0,1-2,1.15c-1.5,0-2.26-.91-2.26-2.73V10h2v3.74c0,.92.37,1.38,1.1,1.38a1.1,1.1,0,0,0,.86-.38,1.55,1.55,0,0,0,.32-1V10h2Z" fill="#f2f2f3"/>
      <path d="M50.52,16.37a2.93,2.93,0,0,1-1.34.23c-1.41,0-2.12-.73-2.12-2.2v-3H46V10h1.06V8.54l2-.57v2h1.46v1.47H49.06v2.63c0,.68.27,1,.8,1a1.31,1.31,0,0,0,.66-.19Z" fill="#f2f2f3"/>
      <path d="M54.73,16.6a3.48,3.48,0,0,1-2.55-.91,3.29,3.29,0,0,1-.93-2.47,3.3,3.3,0,0,1,1-2.52,3.62,3.62,0,0,1,2.61-.91,3.44,3.44,0,0,1,2.54.91,3.24,3.24,0,0,1,.92,2.41,3.42,3.42,0,0,1-1,2.55A3.52,3.52,0,0,1,54.73,16.6Zm.05-5.28a1.35,1.35,0,0,0-1.1.49,2.19,2.19,0,0,0-.4,1.39c0,1.24.51,1.87,1.51,1.87s1.45-.64,1.45-1.93S55.75,11.32,54.78,11.32Z" fill="#f2f2f3"/>
      <path d="M63.8,11.75a1.74,1.74,0,0,0-.84-.19,1.21,1.21,0,0,0-1,.48,2.05,2.05,0,0,0-.37,1.3v3.11h-2V10h2v1.2h0a1.72,1.72,0,0,1,1.71-1.32,1.24,1.24,0,0,1,.49.08Z" fill="#f2f2f3"/>
      <path d="M65.74,8.92a1.16,1.16,0,0,1-.83-.31,1,1,0,0,1,0-1.47,1.23,1.23,0,0,1,.83-.29,1.21,1.21,0,0,1,.84.29,1,1,0,0,1,0,1.48A1.17,1.17,0,0,1,65.74,8.92Zm1,7.53h-2V10h2Z" fill="#f2f2f3"/>
      <path d="M73.82,16.45h-1.9v-.94h0A2.12,2.12,0,0,1,70,16.6a2,2,0,0,1-1.49-.53,1.94,1.94,0,0,1-.54-1.43c0-1.27.75-2,2.24-2.19l1.77-.23c0-.71-.39-1.07-1.16-1.07a4,4,0,0,0-2.21.69V10.33A5.13,5.13,0,0,1,69.72,10,5.92,5.92,0,0,1,71,9.79a2.45,2.45,0,0,1,2.78,2.77ZM71.94,13.8v-.43l-1.18.15c-.65.08-1,.38-1,.88A.71.71,0,0,0,70,15a.89.89,0,0,0,.64.22,1.19,1.19,0,0,0,.92-.39A1.4,1.4,0,0,0,71.94,13.8Z" fill="#f2f2f3"/>
      <path d="M77.41,16.45h-2V6.82h2Z" fill="#f2f2f3"/>
    </g>
  </g>
</svg>
