<svg xmlns="http://www.w3.org/2000/svg" width="135.37" height="25" viewBox="0 0 135.37 25">
  <g id="Shapes">
    <rect width="135.37" height="25" rx="3" fill="#0065b3"/>
    <g>
      <polygon points="9.83 20.59 26.81 20.59 17.67 4.75 14.89 12.4 20.23 18.76 9.83 20.59" fill="#f2f2f3"/>
      <polygon points="16.94 3.54 10.41 9.03 4.81 18.72 9.86 18.72 9.86 18.73 16.94 3.54" fill="#f2f2f3"/>
    </g>
  </g>
  <g id="Text">
    <g>
      <path d="M32.29,16.45V7.34h3.23q4.84,0,4.85,4.44A4.47,4.47,0,0,1,39,15.18a4.89,4.89,0,0,1-3.52,1.27ZM34.34,9v5.77h1a2.71,2.71,0,0,0,2.09-.8,3,3,0,0,0,.76-2.17,2.76,2.76,0,0,0-.75-2.05A2.86,2.86,0,0,0,35.35,9Z" fill="#f2f2f3"/>
      <path d="M44.78,16.6a3.5,3.5,0,0,1-2.56-.91,3.29,3.29,0,0,1-.93-2.47,3.31,3.31,0,0,1,1-2.52,3.62,3.62,0,0,1,2.61-.91,3.45,3.45,0,0,1,2.54.91,3.24,3.24,0,0,1,.92,2.41,3.42,3.42,0,0,1-.95,2.55A3.52,3.52,0,0,1,44.78,16.6Zm0-5.28a1.35,1.35,0,0,0-1.1.49,2.13,2.13,0,0,0-.4,1.39c0,1.24.51,1.87,1.51,1.87s1.44-.64,1.44-1.93S45.8,11.32,44.83,11.32Z" fill="#f2f2f3"/>
      <path d="M54.55,16.21a4,4,0,0,1-2,.39,3.35,3.35,0,0,1-2.43-.9,3.18,3.18,0,0,1-.92-2.35,3.47,3.47,0,0,1,1-2.61,3.66,3.66,0,0,1,2.66-1,3.45,3.45,0,0,1,1.66.3v1.7a2.31,2.31,0,0,0-1.4-.47,1.76,1.76,0,0,0-1.88,1.9,1.87,1.87,0,0,0,.49,1.36,1.79,1.79,0,0,0,1.32.49,2.69,2.69,0,0,0,1.47-.47Z" fill="#f2f2f3"/>
      <path d="M62.12,16.45h-2v-1h0a2.25,2.25,0,0,1-2,1.14c-1.51,0-2.26-.91-2.26-2.73V10h2v3.74c0,.92.36,1.38,1.09,1.38a1.07,1.07,0,0,0,.86-.38,1.49,1.49,0,0,0,.33-1V10h2Z" fill="#f2f2f3"/>
      <path d="M74.08,16.45h-2V12.74c0-1-.34-1.42-1-1.42a.93.93,0,0,0-.8.43,1.71,1.71,0,0,0-.32,1.06v3.64h-2V12.7q0-1.38-1-1.38a1,1,0,0,0-.82.41,1.75,1.75,0,0,0-.31,1.1v3.62h-2V10h2v1h0a2.4,2.4,0,0,1,.88-.85,2.44,2.44,0,0,1,1.22-.32A1.87,1.87,0,0,1,69.78,11,2.39,2.39,0,0,1,72,9.79c1.42,0,2.12.87,2.12,2.61Z" fill="#f2f2f3"/>
      <path d="M81.53,13.77H77.29c.07.94.67,1.41,1.79,1.41A3.46,3.46,0,0,0,81,14.67v1.45a5,5,0,0,1-2.34.48,3.29,3.29,0,0,1-2.44-.87,3.28,3.28,0,0,1-.87-2.43,3.48,3.48,0,0,1,.94-2.57,3.11,3.11,0,0,1,2.31-.94,2.86,2.86,0,0,1,2.2.84,3.29,3.29,0,0,1,.77,2.29Zm-1.86-1.23c0-.94-.37-1.4-1.13-1.4a1.05,1.05,0,0,0-.83.4,1.79,1.79,0,0,0-.43,1Z" fill="#f2f2f3"/>
      <path d="M89.08,16.45h-2V12.83c0-1-.36-1.51-1.08-1.51a1.08,1.08,0,0,0-.85.4,1.51,1.51,0,0,0-.34,1v3.71h-2V10h2v1h0a2.3,2.3,0,0,1,2.09-1.18c1.44,0,2.16.89,2.16,2.68Z" fill="#f2f2f3"/>
      <path d="M94.52,16.37a2.93,2.93,0,0,1-1.34.23c-1.42,0-2.12-.73-2.12-2.2v-3H90V10h1.06V8.54l2-.57v2h1.46v1.47H93.06v2.63c0,.68.27,1,.8,1a1.31,1.31,0,0,0,.66-.19Z" fill="#f2f2f3"/>
      <path d="M101.19,16.45h-1.9v-.94h0a2.1,2.1,0,0,1-1.93,1.09,2,2,0,0,1-1.49-.53,1.94,1.94,0,0,1-.54-1.43c0-1.26.74-2,2.24-2.19l1.76-.23c0-.71-.38-1.07-1.15-1.07a3.94,3.94,0,0,0-2.21.69V10.33A5.2,5.2,0,0,1,97.08,10a6.07,6.07,0,0,1,1.33-.16,2.45,2.45,0,0,1,2.78,2.77ZM99.3,13.8v-.43l-1.18.15c-.65.08-1,.38-1,.88a.71.71,0,0,0,.24.56.92.92,0,0,0,.65.22,1.2,1.2,0,0,0,.92-.39A1.44,1.44,0,0,0,99.3,13.8Z" fill="#f2f2f3"/>
      <path d="M106.6,16.37a2.9,2.9,0,0,1-1.34.23c-1.41,0-2.12-.73-2.12-2.2v-3h-1V10h1V8.54l2-.57v2h1.46v1.47h-1.46v2.63q0,1,.81,1a1.27,1.27,0,0,0,.65-.19Z" fill="#f2f2f3"/>
      <path d="M108.81,8.92a1.19,1.19,0,0,1-.83-.3,1,1,0,0,1-.32-.74,1,1,0,0,1,.32-.74,1.23,1.23,0,0,1,.83-.29,1.21,1.21,0,0,1,.84.29,1,1,0,0,1,0,1.48A1.17,1.17,0,0,1,108.81,8.92Zm1,7.53h-2V10h2Z" fill="#f2f2f3"/>
      <path d="M114.55,16.6a3.48,3.48,0,0,1-2.55-.91,3.29,3.29,0,0,1-.93-2.47,3.3,3.3,0,0,1,1-2.52,3.66,3.66,0,0,1,2.61-.91,3.44,3.44,0,0,1,2.54.91,3.2,3.2,0,0,1,.92,2.41,3.38,3.38,0,0,1-.95,2.55A3.52,3.52,0,0,1,114.55,16.6Zm0-5.28a1.35,1.35,0,0,0-1.1.49,2.19,2.19,0,0,0-.39,1.39c0,1.24.5,1.87,1.51,1.87s1.44-.64,1.44-1.93S115.57,11.32,114.6,11.32Z" fill="#f2f2f3"/>
      <path d="M125.67,16.45h-2V12.83c0-1-.36-1.51-1.08-1.51a1.1,1.1,0,0,0-.86.4,1.57,1.57,0,0,0-.34,1v3.71h-2V10h2v1h0a2.29,2.29,0,0,1,2.09-1.18c1.44,0,2.16.89,2.16,2.68Z" fill="#f2f2f3"/>
    </g>
  </g>
</svg>
