<svg width="160" height="33" xmlns="http://www.w3.org/2000/svg" xmlns:xlink="http://www.w3.org/1999/xlink" overflow="hidden"><defs><clipPath id="clip0"><rect x="538" y="415" width="160" height="33"/></clipPath><clipPath id="clip1"><rect x="551" y="421" width="17" height="17"/></clipPath><clipPath id="clip2"><rect x="551" y="421" width="17" height="17"/></clipPath><clipPath id="clip3"><rect x="551" y="421" width="17" height="17"/></clipPath></defs><g clip-path="url(#clip0)" transform="translate(-538 -415)"><path d="M539 420.667C539 418.089 541.089 416 543.667 416L692.333 416C694.911 416 697 418.089 697 420.667L697 439.333C697 441.911 694.911 444 692.333 444L543.667 444C541.089 444 539 441.911 539 439.333Z" fill="#0065B3" fill-rule="evenodd"/><text fill="#FFFFFF" font-family="Calibri,Calibri_MSFontService,sans-serif" font-weight="400" font-size="15" transform="translate(577.213 435)">Companion article</text><g clip-path="url(#clip1)"><g clip-path="url(#clip2)"><g clip-path="url(#clip3)"><path d="M554.901 434.646 551 434.646 555.325 427.151 560.372 422.909 554.901 434.646ZM568 436.091 554.876 436.091 562.912 434.671 558.786 429.757 560.936 423.847 568 436.091Z"/></g></g></g></g></svg>