<svg width="154" height="34" xmlns="http://www.w3.org/2000/svg" xmlns:xlink="http://www.w3.org/1999/xlink" overflow="hidden"><defs><clipPath id="clip0"><rect x="538" y="420" width="154" height="34"/></clipPath><clipPath id="clip1"><rect x="545" y="426" width="17" height="18"/></clipPath><clipPath id="clip2"><rect x="545" y="426" width="17" height="18"/></clipPath><clipPath id="clip3"><rect x="545" y="426" width="17" height="18"/></clipPath></defs><g clip-path="url(#clip0)" transform="translate(-538 -420)"><path d="M539 425.667C539 423.089 541.089 421 543.667 421L687.333 421C689.911 421 692 423.089 692 425.667L692 444.333C692 446.911 689.911 449 687.333 449L543.667 449C541.089 449 539 446.911 539 444.333Z" fill="#4472C4" fill-rule="evenodd"/><text fill="#FFFFFF" font-family="Calibri,Calibri_MSFontService,sans-serif" font-weight="400" font-size="15" transform="translate(571.879 440)">Companion <tspan font-size="15" x="71.5" y="0">article</tspan></text><g clip-path="url(#clip1)"><g clip-path="url(#clip2)"><g clip-path="url(#clip3)"><path d="M3.90137 13.6465 0 13.6465 4.32471 6.15088 9.37158 1.90918 3.90137 13.6465ZM17 15.0908 3.87646 15.0908 11.9116 13.6714 7.78613 8.75732 9.93604 2.84717 17 15.0908Z" transform="matrix(1 0 0 1.05882 545 426)"/></g></g></g></g></svg>