<svg width="138" height="33" xmlns="http://www.w3.org/2000/svg" xmlns:xlink="http://www.w3.org/1999/xlink" overflow="hidden"><defs><clipPath id="clip0"><rect x="538" y="470" width="138" height="33"/></clipPath><clipPath id="clip1"><rect x="551" y="476" width="17" height="18"/></clipPath><clipPath id="clip2"><rect x="551" y="476" width="17" height="18"/></clipPath><clipPath id="clip3"><rect x="551" y="476" width="17" height="18"/></clipPath></defs><g clip-path="url(#clip0)" transform="translate(-538 -470)"><path d="M539 475.667C539 473.089 541.089 471 543.667 471L670.333 471C672.911 471 675 473.089 675 475.667L675 494.333C675 496.911 672.911 499 670.333 499L543.667 499C541.089 499 539 496.911 539 494.333Z" fill="#0065B3" fill-rule="evenodd"/><text fill="#FFFFFF" font-family="Calibri,Calibri_MSFontService,sans-serif" font-weight="400" font-size="15" transform="translate(576.514 490)">Quickstart</text><g clip-path="url(#clip1)"><g clip-path="url(#clip2)"><g clip-path="url(#clip3)"><path d="M3.90137 13.6465 0 13.6465 4.32471 6.15088 9.37158 1.90918 3.90137 13.6465ZM17 15.0908 3.87646 15.0908 11.9116 13.6714 7.78613 8.75732 9.93604 2.84717 17 15.0908Z" transform="matrix(1 0 0 1.05882 551 476)"/></g></g></g></g></svg>